<svg width="21" height="21" viewBox="0 0 21 21" fill="none" xmlns="http://www.w3.org/2000/svg">
<path d="M16.5743 4.8615C15.4266 4.32451 14.2125 3.94286 12.964 3.72662C12.8083 4.0075 12.6271 4.38637 12.5011 4.6865C11.175 4.48438 9.82588 4.48438 8.49975 4.6865C8.36069 4.35854 8.20443 4.03813 8.03163 3.72662C6.78205 3.94322 5.56702 4.32577 4.41875 4.86412C2.13413 8.31687 1.51463 11.6839 1.82438 15.0027C3.15801 16.0097 4.6564 16.7774 6.25275 17.2716C6.61142 16.778 6.92867 16.2556 7.20125 15.7097C6.68279 15.5122 6.18295 15.2688 5.70762 14.9826C5.83275 14.8899 5.95525 14.7927 6.07338 14.693C8.953 16.0396 12.0811 16.0396 14.9266 14.693C15.0465 14.7927 15.169 14.8899 15.2924 14.9826C14.819 15.2679 14.3176 15.5129 13.7961 15.7106C14.0682 16.2568 14.3855 16.7792 14.7446 17.2725C16.3422 16.7786 17.8416 16.0102 19.1756 15.0019C19.5388 11.1554 18.5553 7.819 16.5743 4.8615V4.8615ZM7.59325 12.9614C6.72875 12.9614 6.02 12.1546 6.02 11.172C6.02 10.1894 6.71388 9.38087 7.59325 9.38087C8.47263 9.38087 9.18138 10.1876 9.1665 11.172C9.16738 12.1546 8.47263 12.9614 7.59325 12.9614ZM13.4068 12.9614C12.5423 12.9614 11.8335 12.1546 11.8335 11.172C11.8335 10.1894 12.5274 9.38087 13.4068 9.38087C14.2861 9.38087 14.9949 10.1876 14.98 11.172C14.98 12.1546 14.2861 12.9614 13.4068 12.9614Z" fill="#9E8859"/>
</svg>
