<svg width="21" height="21" viewBox="0 0 21 21" fill="none" xmlns="http://www.w3.org/2000/svg">
<g clip-path="url(#clip0_2_29)">
<path fill-rule="evenodd" clip-rule="evenodd" d="M10.5 0C4.69875 0 0 4.8176 0 10.7656C0 15.5294 3.00562 19.553 7.17937 20.9794C7.70437 21.0736 7.90125 20.7507 7.90125 20.4681C7.90125 20.2124 7.88813 19.3646 7.88813 18.463C5.25 18.9609 4.5675 17.8036 4.3575 17.198C4.23937 16.8885 3.7275 15.9331 3.28125 15.6774C2.91375 15.4755 2.38875 14.9776 3.26813 14.9642C4.095 14.9507 4.68563 15.7447 4.8825 16.0676C5.8275 17.6959 7.33688 17.2384 7.94063 16.9558C8.0325 16.256 8.30812 15.785 8.61 15.5159C6.27375 15.2468 3.8325 14.3182 3.8325 10.2004C3.8325 9.02963 4.23938 8.06073 4.90875 7.30714C4.80375 7.038 4.43625 5.93453 5.01375 4.45426C5.01375 4.45426 5.89313 4.17166 7.90125 5.55773C8.74125 5.31551 9.63375 5.19439 10.5263 5.19439C11.4188 5.19439 12.3113 5.31551 13.1513 5.55773C15.1594 4.15821 16.0388 4.45426 16.0388 4.45426C16.6163 5.93453 16.2488 7.038 16.1438 7.30714C16.8131 8.06073 17.22 9.01618 17.22 10.2004C17.22 14.3317 14.7656 15.2468 12.4294 15.5159C12.81 15.8523 13.1381 16.4983 13.1381 17.5075C13.1381 18.9474 13.125 20.1047 13.125 20.4681C13.125 20.7507 13.3219 21.0871 13.8469 20.9794C17.9944 19.553 21 15.5159 21 10.7656C21 4.8176 16.3013 0 10.5 0Z" fill="#9E8859"/>
</g>
<defs>
<clipPath id="clip0_2_29">
<rect width="21" height="21" fill="white"/>
</clipPath>
</defs>
</svg>
