<svg width="70" height="27" viewBox="0 0 70 27" fill="none" xmlns="http://www.w3.org/2000/svg">
<g clip-path="url(#clip0_6_216)">
<path d="M36.1397 8.64546L39.47 8.42932C39.5459 8.97602 39.6852 9.38287 39.9132 9.67529C40.2804 10.133 40.7869 10.3618 41.458 10.3618C41.9519 10.3618 42.3444 10.2474 42.6103 10.0058C42.8636 9.81514 43.0156 9.51001 43.0156 9.19216C43.0156 8.88702 42.8763 8.5946 42.6357 8.4039C42.3824 8.17504 41.7873 7.94619 40.8502 7.74277C39.318 7.3995 38.2164 6.94179 37.5706 6.35695C36.9247 5.81026 36.5575 5.00928 36.5828 4.15745C36.5828 3.5726 36.7601 2.98776 37.0894 2.50464C37.4692 1.95794 37.9884 1.52566 38.6089 1.2841C39.28 0.991678 40.2171 0.839111 41.3947 0.839111C42.8383 0.839111 43.9399 1.1061 44.6997 1.6528C45.4595 2.18679 45.9153 3.05133 46.0546 4.23373L42.7623 4.42444C42.6737 3.91588 42.4964 3.54718 42.2051 3.30561C41.9139 3.06405 41.534 2.94962 41.0402 2.94962C40.6349 2.94962 40.331 3.03862 40.1284 3.2039C39.9385 3.35647 39.8119 3.58532 39.8245 3.8396C39.8245 4.03031 39.9258 4.2083 40.0778 4.32273C40.2424 4.47529 40.6349 4.61515 41.2554 4.74229C42.7876 5.07285 43.8766 5.40341 44.5478 5.74669C45.2189 6.08996 45.7001 6.50952 45.9913 7.00536C46.2952 7.51392 46.4472 8.09876 46.4345 8.69632C46.4345 9.4083 46.2319 10.1203 45.8267 10.7178C45.4088 11.3408 44.8263 11.8239 44.1425 12.1164C43.4208 12.4342 42.509 12.5995 41.42 12.5995C39.4953 12.5995 38.1657 12.2308 37.4186 11.4807C36.6715 10.7305 36.2283 9.78971 36.1397 8.64546ZM0.797757 12.4088V1.04253H6.63531C7.71165 1.04253 8.54739 1.13153 9.11722 1.32224C9.67438 1.50024 10.1682 1.86894 10.4975 2.36478C10.8647 2.91148 11.042 3.54718 11.0293 4.2083C11.0673 5.32713 10.4975 6.3951 9.52243 6.95451C9.14255 7.17065 8.72467 7.32321 8.29414 7.3995C8.61071 7.48849 8.92728 7.64106 9.20586 7.81906C9.42113 7.99705 9.59841 8.20047 9.76302 8.41661C9.95297 8.63275 10.1176 8.87431 10.2569 9.12859L11.9537 12.4215H7.97757L6.10347 8.92517C5.86288 8.48018 5.66027 8.18776 5.47033 8.04791C5.21708 7.86991 4.91317 7.78091 4.60926 7.78091H4.30535V12.3961H0.797757V12.4088ZM4.30535 5.64497H5.7869C6.10347 5.61955 6.40738 5.56869 6.71129 5.49241C6.93922 5.45427 7.14182 5.32713 7.28111 5.13642C7.62301 4.67872 7.57236 4.03031 7.15449 3.63617C6.92656 3.44547 6.48336 3.34375 5.85022 3.34375H4.30535V5.64497ZM0 22.1476L3.33032 21.9315C3.4063 22.4782 3.54559 22.8851 3.77352 23.1775C4.12808 23.6352 4.64725 23.8767 5.31838 23.8767C5.81223 23.8767 6.20478 23.7623 6.47069 23.5207C6.72395 23.3173 6.8759 23.0249 6.8759 22.7071C6.8759 22.4019 6.73661 22.1095 6.49602 21.9188C6.24276 21.6899 5.64761 21.4611 4.6979 21.2577C3.1657 20.9144 2.06404 20.4567 1.41823 19.8719C0.772431 19.3252 0.40521 18.5242 0.430535 17.6723C0.430535 17.0875 0.607815 16.5027 0.937048 16.0195C1.31693 15.4728 1.83611 15.0406 2.45658 14.799C3.12771 14.5066 4.06476 14.354 5.2424 14.354C6.68596 14.354 7.78763 14.621 8.54739 15.1677C9.30716 15.7144 9.75036 16.5662 9.88965 17.7486L6.59732 17.9393C6.50868 17.4308 6.3314 17.0621 6.04016 16.8205C5.76158 16.5789 5.36903 16.4645 4.87518 16.4772C4.46997 16.4772 4.16606 16.5662 3.96346 16.7442C3.76085 16.8968 3.64689 17.1256 3.65955 17.3799C3.65955 17.5706 3.76085 17.7486 3.91281 17.8631C4.07742 18.0156 4.46997 18.1555 5.09045 18.2826C6.62265 18.6132 7.71165 18.9437 8.38278 19.287C9.05391 19.6303 9.53509 20.0498 9.82634 20.5457C10.1302 21.0542 10.2822 21.6391 10.2822 22.2239C10.2822 22.9359 10.0669 23.6352 9.67438 24.2327C9.25651 24.8557 8.67402 25.3388 7.99023 25.6313C7.26845 25.9491 6.35673 26.1144 5.26773 26.1144C3.34298 26.1144 2.01339 25.7457 1.26628 24.9956C0.519175 24.2327 0.101302 23.2919 0 22.1476H0Z" fill="#E4E5E2"/>
<path d="M16.8415 21.2577L19.9059 22.1858C19.7413 22.9613 19.3994 23.6987 18.9309 24.3472C18.5004 24.9193 17.9305 25.3643 17.2847 25.6567C16.6263 25.9491 15.7905 26.1017 14.7775 26.1017C13.5492 26.1017 12.5362 25.9237 11.7638 25.5677C10.9787 25.2117 10.3075 24.576 9.73771 23.6733C9.16788 22.7706 8.8893 21.6137 8.8893 20.2024C8.8893 18.3207 9.38315 16.8714 10.3835 15.867C11.3839 14.8626 12.7894 14.354 14.6129 14.354C16.0438 14.354 17.1581 14.6464 17.9812 15.2186C18.7916 15.8034 19.3994 16.6934 19.8046 17.8885L16.7149 18.575C16.6389 18.308 16.525 18.041 16.373 17.8122C16.1831 17.5452 15.9425 17.3418 15.6512 17.1892C15.36 17.0366 15.0308 16.9731 14.7015 16.9731C13.9038 16.9731 13.296 17.2909 12.8781 17.9393C12.5615 18.4097 12.3969 19.1599 12.3969 20.177C12.3969 21.4357 12.5868 22.3002 12.9667 22.7706C13.3466 23.241 13.8784 23.4699 14.5749 23.4699C15.246 23.4699 15.7525 23.2792 16.0944 22.9105C16.4363 22.5163 16.6896 21.9696 16.8415 21.2577ZM23.996 14.5447H27.491V18.5242H31.3151V14.5447H34.8354V25.911H31.3151V21.3085H27.491V25.911H23.996V14.5447V14.5447Z" fill="#E4E5E2"/>
<path d="M34.3542 20.2279C34.3542 18.3716 34.8734 16.9222 35.8991 15.8924C36.9248 14.8626 38.3683 14.3413 40.2044 14.3413C42.0912 14.3413 43.5347 14.8499 44.5604 15.867C45.5861 16.8841 46.0926 18.3081 46.0926 20.1389C46.0926 21.4738 45.8647 22.5545 45.4215 23.4063C44.991 24.2455 44.3198 24.932 43.4968 25.3897C42.6483 25.8601 41.5973 26.1017 40.3437 26.1017C39.0648 26.1017 38.0138 25.8983 37.178 25.4914C36.3169 25.0591 35.6078 24.3853 35.1393 23.5589C34.6201 22.6689 34.3542 21.5628 34.3542 20.2279ZM37.8491 20.2406C37.8491 21.3848 38.0644 22.2112 38.4823 22.7198C38.9002 23.2156 39.4826 23.4699 40.2171 23.4699C40.9642 23.4699 41.5467 23.2283 41.9646 22.7325C42.3824 22.2367 42.585 21.3594 42.585 20.088C42.585 19.02 42.3698 18.2318 41.9392 17.7486C41.5087 17.2528 40.9262 17.0112 40.1918 17.0112C39.546 16.9858 38.9255 17.2655 38.4949 17.7614C38.0644 18.2572 37.8491 19.0836 37.8491 20.2406V20.2406ZM49.6762 20.2279C49.6762 18.3716 50.1954 16.9222 51.2211 15.8924C52.2468 14.8626 53.6903 14.3413 55.5264 14.3413C57.4132 14.3413 58.8694 14.8499 59.8824 15.867C60.8954 16.8841 61.4146 18.3081 61.4146 20.1389C61.4146 21.4738 61.1867 22.5545 60.7435 23.4063C60.313 24.2455 59.6418 24.932 58.8188 25.3897C57.9703 25.8601 56.9193 26.1017 55.6657 26.1017C54.3868 26.1017 53.3358 25.8983 52.5 25.4914C51.6389 25.0591 50.9298 24.3853 50.4613 23.5589C49.9421 22.6689 49.6762 21.5628 49.6762 20.2279V20.2279ZM53.1711 20.2406C53.1711 21.3848 53.3864 22.2112 53.8043 22.7198C54.2221 23.2156 54.8046 23.4699 55.5391 23.4699C56.2862 23.4699 56.8687 23.2283 57.2865 22.7325C57.7044 22.2367 57.907 21.3594 57.907 20.088C57.907 19.02 57.6918 18.2318 57.2612 17.7486C56.8307 17.2528 56.2482 17.0112 55.5138 17.0112C54.868 16.9858 54.2348 17.2655 53.8169 17.7614C53.3864 18.2572 53.1711 19.0836 53.1711 20.2406V20.2406Z" fill="#E4E5E2"/>
<path d="M61.0474 14.5447H64.5423V23.1139H70V25.911H61.0347V14.5447H61.0474Z" fill="#E4E5E2"/>
<path d="M57.2415 14.3542C60.8668 11.6111 61.9848 6.96117 59.7385 3.96826C57.4921 0.975344 52.7321 0.772797 49.1067 3.51586C45.4814 6.25892 44.3634 10.9088 46.6097 13.9018C48.8561 16.8947 53.6161 17.0972 57.2415 14.3542Z" fill="#E4E5E2"/>
<path d="M56.9692 13.7692C60.3086 11.2425 61.338 6.95897 59.2685 4.20163C57.199 1.44429 52.8142 1.2573 49.4748 3.78396C46.1354 6.31062 45.106 10.5941 47.1755 13.3515C49.245 16.1088 53.6298 16.2958 56.9692 13.7692Z" fill="#333E50"/>
<path d="M49.6889 7.79362L50.9551 6.90365L52.5127 9.12858C52.7786 9.48457 52.9812 9.86599 53.1331 10.2856C53.2218 10.6034 53.1965 10.9467 53.0698 11.2518C52.9052 11.6332 52.6393 11.9511 52.2847 12.1799C51.8669 12.4723 51.5123 12.6376 51.2084 12.6885C50.9171 12.7393 50.6132 12.6885 50.3347 12.5613C50.0307 12.4088 49.7648 12.1926 49.5622 11.9129L50.6512 10.8958C50.7399 11.0357 50.8538 11.1628 50.9805 11.2645C51.0691 11.3281 51.1704 11.3662 51.2844 11.3662C51.373 11.3662 51.4616 11.3281 51.525 11.2772C51.6516 11.201 51.7402 11.0484 51.7276 10.8958C51.6896 10.6797 51.6009 10.4635 51.4616 10.2983L49.6889 7.79362V7.79362ZM53.4877 9.20487L54.64 8.28946C54.7666 8.44203 54.9313 8.55646 55.1085 8.62003C55.3618 8.69631 55.6277 8.64545 55.843 8.48017C55.9949 8.37846 56.1216 8.23861 56.1722 8.06061C56.2482 7.83176 56.1216 7.57748 55.8936 7.5012C55.8556 7.48849 55.8177 7.47577 55.7797 7.47577C55.6277 7.46306 55.3618 7.52663 54.9692 7.69191C54.3234 7.9589 53.8169 8.06061 53.437 8.02247C53.0698 7.98433 52.7279 7.79362 52.5253 7.47577C52.3734 7.25964 52.2974 7.00536 52.2847 6.75108C52.2847 6.45866 52.3607 6.16624 52.5253 5.92467C52.7659 5.5814 53.0572 5.28898 53.4117 5.06013C53.9436 4.69142 54.4121 4.51343 54.8173 4.51343C55.2225 4.51343 55.6024 4.70414 55.9569 5.09827L54.8173 6.00096C54.5894 5.70854 54.1588 5.64497 53.8676 5.87382L53.8296 5.91196C53.703 5.98824 53.6143 6.10267 53.5637 6.24252C53.5257 6.34423 53.551 6.45866 53.6143 6.54766C53.665 6.61123 53.741 6.66208 53.8296 6.66208C53.9309 6.6748 54.1082 6.62394 54.3614 6.50951C54.9946 6.24252 55.4758 6.08995 55.805 6.0391C56.0836 5.98824 56.3748 6.01367 56.6407 6.1281C56.8813 6.22981 57.0839 6.4078 57.2232 6.62394C57.4005 6.87822 57.5018 7.18335 57.5145 7.5012C57.5271 7.83176 57.4385 8.14961 57.2612 8.42932C57.0333 8.77259 56.742 9.06501 56.4001 9.29386C55.7037 9.77699 55.1339 9.98042 54.678 9.90413C54.1841 9.82785 53.7789 9.57357 53.4877 9.20487V9.20487Z" fill="#E4E5E2"/>
</g>
<defs>
<clipPath id="clip0_6_216">
<rect width="70" height="26.1017" fill="white"/>
</clipPath>
</defs>
</svg>
